<svg width="53" height="23" viewBox="0 0 53 23" fill="none" xmlns="http://www.w3.org/2000/svg">
<circle cx="11.75" cy="11.25" r="10.5703" fill="#AB93F0" stroke="white" stroke-width="0.640625"/>
<mask id="mask0_100_720" style="mask-type:alpha" maskUnits="userSpaceOnUse" x="1" y="1" width="21" height="21">
<circle cx="11.75" cy="11.25" r="10.25" fill="#D9D9D9"/>
</mask>
<g mask="url(#mask0_100_720)">
<path d="M13.2846 8.86302C13.5951 9.0756 13.7508 9.62175 13.8119 9.97034C13.888 10.4038 13.7065 10.8048 13.7593 11.236C13.8089 11.6407 14.0975 11.9199 14.2601 12.292C14.458 12.7449 14.3841 13.0954 14.1877 13.5313C14.015 13.9146 13.8515 14.2809 14.0163 14.6965C14.1872 15.1274 14.6202 15.1957 14.9399 15.4868C15.484 15.9822 16.0337 17.1006 15.0235 17.3523C14.2076 17.5556 13.2399 17.5027 12.3868 17.5363C12.0746 17.5486 11.7025 17.6415 11.4297 17.4924C11.157 17.6415 10.7848 17.5486 10.4727 17.5363C9.61965 17.5026 8.6519 17.5555 7.83603 17.3523C6.8258 17.1006 7.37547 15.9822 7.91963 15.4868C8.23932 15.1957 8.67223 15.1273 8.84317 14.6965C9.00805 14.2809 8.84451 13.9146 8.6718 13.5313C8.47539 13.0954 8.40155 12.7449 8.59938 12.292C8.76197 11.9198 9.05057 11.6407 9.1002 11.236C9.15304 10.8047 8.97154 10.4038 9.04756 9.97034C9.10866 9.62175 9.26441 9.0756 9.57488 8.86302C9.57484 8.86302 11.2338 8.04568 13.2846 8.86302Z" fill="#3B2B22"/>
<path d="M19.5015 21.5001C19.5762 19.483 18.3058 18.7073 18.3058 18.7073L12.9541 15.6818H9.90492L4.55326 18.7073C4.55326 18.7073 3.28295 19.483 3.35766 21.5001H19.5015Z" fill="#F9C5B8"/>
<path d="M9.52429 16.0728H13.3349C12.4905 15.6168 12.7181 13.8643 12.7181 13.8643H10.1411C10.1411 13.8643 10.3686 15.6168 9.52429 16.0728Z" fill="#F9C5B8"/>
<path d="M10.0883 15.1818C10.9987 15.0779 11.8897 14.7728 12.6907 14.3216C12.6937 14.0525 12.7181 13.8643 12.7181 13.8643H10.1411C10.1411 13.8642 10.2305 14.5548 10.0883 15.1818Z" fill="#F5A997"/>
<path d="M15.8742 9.96003C15.7939 10.5799 15.4432 11.0403 15.0906 10.9882C14.7382 10.9361 14.5174 10.3913 14.5975 9.77134C14.6777 9.15139 15.0286 8.69107 15.3811 8.74315C15.7337 8.79528 15.9544 9.34008 15.8742 9.96003Z" fill="#F5A997"/>
<path d="M15.0855 10.5284C15.0377 10.5284 14.9943 10.496 14.9823 10.4474C14.8944 10.0917 14.8545 9.67012 15.2247 9.24089C15.263 9.19643 15.3303 9.19141 15.3747 9.22977C15.4192 9.26818 15.4242 9.33537 15.3858 9.37987C15.0645 9.75251 15.1157 10.1 15.1889 10.3965C15.203 10.4535 15.1682 10.5112 15.1111 10.5252C15.1025 10.5273 15.0939 10.5284 15.0855 10.5284Z" fill="#E9837B"/>
<path d="M15.4433 9.91058C15.4367 9.91058 15.4299 9.90995 15.4232 9.90868C15.2526 9.87641 15.0764 9.9084 15.0747 9.90872C15.0169 9.9194 14.9614 9.88151 14.9505 9.82381C14.9396 9.76614 14.9775 9.71053 15.0351 9.69958C15.0439 9.69784 15.2512 9.65928 15.463 9.69958C15.5207 9.71049 15.5586 9.76622 15.5476 9.82396C15.538 9.87498 15.4933 9.91058 15.4433 9.91058Z" fill="#E9837B"/>
<path d="M6.98497 9.96003C7.06522 10.5799 7.41591 11.0403 7.76842 10.9882C8.12097 10.9361 8.34166 10.3913 8.26157 9.77134C8.1814 9.15139 7.83055 8.69107 7.47797 8.74315C7.12546 8.79528 6.90469 9.34008 6.98497 9.96003Z" fill="#F5A997"/>
<path d="M7.77364 10.5275C7.76514 10.5275 7.75656 10.5265 7.74809 10.5243C7.69102 10.5102 7.65618 10.4525 7.67022 10.3955C7.74347 10.099 7.79461 9.75156 7.4733 9.37892C7.43498 9.33443 7.43992 9.26723 7.48441 9.22883C7.52899 9.19042 7.59626 9.19545 7.63451 9.23994C8.00458 9.66918 7.96467 10.0907 7.87683 10.4465C7.86489 10.495 7.82146 10.5275 7.77364 10.5275Z" fill="#E9837B"/>
<path d="M7.41587 9.90969C7.36572 9.90969 7.32115 9.87409 7.31142 9.82307C7.30054 9.76533 7.33839 9.70961 7.39609 9.69869C7.60777 9.65847 7.81532 9.69695 7.82403 9.69869C7.88173 9.70964 7.91958 9.76537 7.9087 9.82307C7.89767 9.88082 7.84159 9.91847 7.7844 9.90783C7.78139 9.90728 7.60603 9.87556 7.43584 9.90779C7.42916 9.90906 7.42243 9.90969 7.41587 9.90969Z" fill="#E9837B"/>
<path d="M15 8.47456C14.9368 6.70597 13.8514 4.52115 11.6257 4.53313H11.3984H11.171C8.9452 4.52115 7.85979 6.70597 7.79663 8.47456C7.73307 10.2522 8.27803 12.3023 9.38519 13.3926C9.90421 13.9037 10.6916 14.1495 11.3984 14.1618C12.105 14.1495 12.8925 13.9037 13.4114 13.3926C14.5185 12.3023 15.0635 10.2522 15 8.47456Z" fill="#F9C5B8"/>
<path d="M16.6738 21.5005C16.6292 20.2969 16.6098 19.0834 16.9348 17.9315L14.3886 16.4922C14.3678 17.6685 14.1217 18.9398 13.1279 19.6438C12.6755 19.9641 12.121 20.0842 11.5688 20.0906V20.0851C11.5228 20.0876 11.4766 20.0891 11.4305 20.0901C11.3844 20.0891 11.3382 20.0876 11.2923 20.0851V20.0906C10.74 20.0842 10.1856 19.9641 9.73311 19.6438C8.73934 18.9398 8.49322 17.6685 8.47246 16.4922L5.92627 17.9315C6.25125 19.0834 6.23187 20.297 6.18722 21.5005H16.6738Z" fill="#6CA7FF"/>
<path d="M10.6707 10.5875C10.6707 10.8039 10.2843 10.9795 9.80777 10.9795C9.33123 10.9795 8.94495 10.8039 8.94495 10.5875C8.94495 10.3709 9.33127 10.1953 9.80777 10.1953C10.2844 10.1953 10.6707 10.3709 10.6707 10.5875Z" fill="#F6AFA8"/>
<path d="M13.8519 10.5875C13.8519 10.8039 13.4656 10.9795 12.9889 10.9795C12.5124 10.9795 12.1261 10.8039 12.1261 10.5875C12.1261 10.3709 12.5124 10.1953 12.9889 10.1953C13.4656 10.1953 13.8519 10.3709 13.8519 10.5875Z" fill="#F6AFA8"/>
<path d="M9.98169 10.1052C10.1384 10.1052 10.2655 9.86586 10.2655 9.57065C10.2655 9.27544 10.1384 9.03613 9.98169 9.03613C9.82494 9.03613 9.69788 9.27544 9.69788 9.57065C9.69788 9.86586 9.82494 10.1052 9.98169 10.1052Z" fill="#2A2D6B"/>
<path d="M13.0988 9.57061C13.0988 9.86581 12.9717 10.1051 12.8152 10.1051C12.6584 10.1051 12.5314 9.86581 12.5314 9.57061C12.5314 9.27537 12.6584 9.03613 12.8152 9.03613C12.9717 9.03613 13.0988 9.27537 13.0988 9.57061Z" fill="#2A2D6B"/>
<path d="M11.4715 11.7222C11.4581 11.7222 11.4443 11.7196 11.4311 11.7142C11.2023 11.62 11.0776 11.5142 11.039 11.3813C10.988 11.2059 11.0997 11.0478 11.2181 10.8804C11.2921 10.7756 11.3687 10.6673 11.4059 10.5539C11.4242 10.4981 11.4845 10.4679 11.5402 10.486C11.5961 10.5043 11.6265 10.5645 11.6082 10.6203C11.561 10.764 11.4711 10.8911 11.3919 11.0032C11.3039 11.1276 11.2211 11.245 11.2433 11.3219C11.2561 11.3659 11.3132 11.4356 11.512 11.5173C11.5664 11.5397 11.5923 11.6019 11.5699 11.6563C11.5531 11.6973 11.5134 11.7222 11.4715 11.7222Z" fill="#E9837B"/>
<path d="M12.5304 12.1466C12.5304 12.1466 11.5443 13.5154 10.2661 12.1466H12.5304Z" fill="white"/>
<path d="M13.7292 8.74407C13.2769 8.10162 12.3296 8.19975 12.07 8.45378C12.07 8.45378 12.0197 8.69614 12.0726 8.69357C12.8188 8.41897 13.5074 8.67281 13.7268 8.79118C13.7613 8.79525 13.7292 8.74407 13.7292 8.74407Z" fill="#3B2B22"/>
<path d="M9.06757 8.74407C9.51971 8.10162 10.467 8.19975 10.7267 8.45378C10.7267 8.45378 10.777 8.69614 10.7241 8.69357C9.97793 8.41897 9.28929 8.67281 9.06982 8.79118C9.03542 8.79525 9.06757 8.74407 9.06757 8.74407Z" fill="#3B2B22"/>
<path d="M14.8347 10.2411C15.1997 9.9906 14.9101 8.79255 15.4146 8.75893C15.4146 8.75893 16.5867 5.84505 14.0001 4.27867C13.5468 3.60023 11.7059 3.5625 11.7059 3.5625C6.06774 3.60577 7.49597 8.69727 7.49597 8.69727C7.80394 9.01961 7.70637 9.50018 7.91077 10.2467C7.91077 10.2467 8.47962 8.92844 8.58597 7.22578C8.58597 7.22578 12.1837 7.01296 13.0985 5.45216C13.0985 5.45216 14.4039 5.87783 14.581 7.43864C14.581 7.43856 14.5788 9.62413 14.8347 10.2411Z" fill="#3C2B22"/>
</g>
<circle cx="26.5" cy="11" r="10.3125" fill="#FADE98" stroke="white" stroke-width="0.625"/>
<mask id="mask1_100_720" style="mask-type:alpha" maskUnits="userSpaceOnUse" x="16" y="1" width="21" height="20">
<circle cx="26.5" cy="11" r="10" fill="#D9D9D9"/>
</mask>
<g mask="url(#mask1_100_720)">
<path d="M34.1971 20.9997C34.2697 19.0379 33.0342 18.2834 33.0342 18.2834L27.8288 15.3407H24.8633L19.6581 18.2834C19.6581 18.2834 18.4225 19.0379 18.4951 20.9997H34.1971Z" fill="#E79777"/>
<path d="M24.493 15.7214H28.1992C27.378 15.278 27.5993 13.5734 27.5993 13.5734H25.0929C25.0929 13.5733 25.3142 15.278 24.493 15.7214Z" fill="#E79777"/>
<path d="M25.0416 14.8548C25.9271 14.7537 26.7937 14.4569 27.5727 14.0181C27.5757 13.7564 27.5993 13.5732 27.5993 13.5732H25.0929C25.0929 13.5732 25.1799 14.245 25.0416 14.8548Z" fill="#C17354"/>
<path d="M30.669 9.7756C30.591 10.3786 30.2498 10.8263 29.907 10.7756C29.5641 10.7249 29.3494 10.195 29.4274 9.59206C29.5054 8.98909 29.8466 8.54133 30.1895 8.59205C30.5324 8.64273 30.747 9.17259 30.669 9.7756Z" fill="#E69777"/>
<path d="M29.9021 10.3275C29.8556 10.3275 29.8133 10.2959 29.8017 10.2488C29.7163 9.90277 29.6774 9.49274 30.0373 9.07522C30.0747 9.03187 30.14 9.02715 30.1833 9.0644C30.2266 9.10172 30.2315 9.1671 30.1941 9.21037C29.8817 9.57281 29.9315 9.91079 30.0027 10.1991C30.0164 10.2546 29.9826 10.3107 29.927 10.3244C29.9186 10.3265 29.9103 10.3275 29.9021 10.3275Z" fill="#C17354"/>
<path d="M30.2499 9.72614C30.2435 9.72614 30.237 9.72553 30.2305 9.72431C30.0643 9.69284 29.8932 9.72407 29.8915 9.72431C29.8351 9.73465 29.7812 9.69785 29.7706 9.64176C29.7601 9.58567 29.7969 9.53157 29.8529 9.52095C29.8615 9.51932 30.0633 9.48179 30.2691 9.52095C30.3253 9.53157 30.3621 9.58575 30.3514 9.64192C30.342 9.69154 30.2986 9.72614 30.2499 9.72614Z" fill="#C17354"/>
<path d="M22.0232 9.7756C22.1013 10.3786 22.4424 10.8263 22.7853 10.7756C23.1281 10.7249 23.3428 10.195 23.2649 9.59206C23.1868 8.98909 22.8457 8.54133 22.5028 8.59205C22.16 8.64273 21.9452 9.17259 22.0232 9.7756Z" fill="#E69777"/>
<path d="M22.7902 10.3275C22.782 10.3275 22.7737 10.3266 22.7653 10.3244C22.7098 10.3108 22.676 10.2547 22.6897 10.1992C22.7609 9.91083 22.8106 9.57285 22.4982 9.21041C22.4609 9.16714 22.4657 9.10177 22.509 9.06444C22.5523 9.02712 22.6176 9.03188 22.655 9.07527C23.0149 9.49275 22.9761 9.90281 22.8906 10.2488C22.879 10.2959 22.8367 10.3275 22.7902 10.3275Z" fill="#C17354"/>
<path d="M22.82 9.72617C22.8137 9.72617 22.8073 9.72556 22.8008 9.72434C22.7978 9.72381 22.6274 9.69295 22.4618 9.72434C22.4057 9.73521 22.3514 9.69808 22.3407 9.64195C22.3301 9.58578 22.3669 9.5316 22.4231 9.52097C22.6288 9.48177 22.8308 9.5193 22.8393 9.52097C22.8954 9.53164 22.9323 9.58582 22.9216 9.64195C22.9122 9.69157 22.8688 9.72617 22.82 9.72617Z" fill="#C17354"/>
<path d="M29.8187 8.3308C29.7572 6.61058 28.7015 4.4856 26.5367 4.49724H26.3156H26.0944C23.9296 4.48556 22.8739 6.61058 22.8124 8.3308C22.7506 10.0598 23.2807 12.0538 24.3575 13.1142C24.8623 13.6113 25.6282 13.8504 26.3156 13.8623C27.0029 13.8504 27.7688 13.6113 28.2736 13.1142C29.3504 12.0538 29.8805 10.0597 29.8187 8.3308Z" fill="#E79777"/>
<path d="M29.1796 6.92587C29.2718 7.62002 29.5131 8.58763 29.7473 9.58011C29.7473 9.58011 31.2045 4.29597 27.4911 3.97363C27.4911 3.97363 26.909 3.87614 26.3028 3.93479C25.6966 3.87614 25.1145 3.97363 25.1145 3.97363C21.4011 4.29597 22.8583 9.58011 22.8583 9.58011C23.0729 9.0001 23.3949 7.96504 23.5855 6.82195C23.5855 6.82195 24.3752 5.71098 26.3462 5.75693C26.3462 5.75689 28.5616 5.73389 29.1796 6.92587Z" fill="#292A3C"/>
<path d="M23.7316 4.44627C23.7316 4.44627 24.6961 3.88926 24.4914 3.18766C24.4914 3.18766 25.1391 3.18766 25.2842 3.34361C25.2842 3.34361 25.3805 2.74597 25.1493 2.53809C25.1493 2.53809 28.5499 3.4527 29.2716 4.8101C29.2716 4.81006 24.792 5.7473 23.7316 4.44627Z" fill="#292A3C"/>
<path d="M28.2906 15.6016L33.0342 18.2832C33.0342 18.2832 34.2697 19.0377 34.1971 20.9995H18.4951C18.4225 19.0377 19.6581 18.2832 19.6581 18.2832L24.4015 15.6016C24.4015 15.6016 25.9755 17.8097 28.2906 15.6016Z" fill="#2C3869"/>
<path d="M33.0342 18.2838L31.2454 17.2726V21.0001H34.1972C34.2698 19.0383 33.0342 18.2838 33.0342 18.2838Z" fill="#646DB2"/>
<path d="M21.4469 17.2725L19.6581 18.2837C19.6581 18.2837 18.4225 19.0383 18.4951 21.0001H21.4469V17.2725Z" fill="#646DB2"/>
<path d="M26.2893 12.2991C25.808 12.2991 25.5032 12.031 25.4987 12.0269C25.4563 11.9885 25.453 11.9231 25.4913 11.8807C25.5295 11.8383 25.5948 11.835 25.6373 11.8731C25.661 11.8941 26.2096 12.3675 27.0077 11.8626C27.0559 11.832 27.1199 11.8464 27.1505 11.8948C27.1811 11.9431 27.1667 12.007 27.1183 12.0376C26.8088 12.2334 26.5275 12.2991 26.2893 12.2991Z" fill="#A0573A"/>
<path d="M25.4037 8.34771C25.3935 8.44609 25.3158 8.51208 25.23 8.50381C24.9153 8.47312 24.6023 8.52502 24.3143 8.65569C24.2357 8.69114 24.1409 8.65385 24.0994 8.56394C24.0581 8.47426 24.0967 8.35968 24.189 8.31787C24.5194 8.16791 24.8783 8.1084 25.2394 8.14365C25.3404 8.15346 25.4139 8.24949 25.4037 8.34771Z" fill="#292A3B"/>
<path d="M27.2274 8.34771C27.2377 8.44609 27.3154 8.51208 27.4011 8.50381C27.7159 8.47312 28.0289 8.52502 28.3169 8.65569C28.3954 8.69114 28.4902 8.65385 28.5317 8.56394C28.573 8.47426 28.5344 8.35968 28.4421 8.31787C28.1117 8.16791 27.7527 8.1084 27.3917 8.14365C27.2909 8.15346 27.2173 8.24949 27.2274 8.34771Z" fill="#292A3B"/>
<path d="M26.281 11.5083C26.2679 11.5083 26.2546 11.5057 26.2417 11.5004C26.0191 11.4089 25.8979 11.3059 25.8603 11.1766C25.8108 11.006 25.9195 10.8522 26.0345 10.6894C26.1065 10.5875 26.181 10.4821 26.2172 10.3718C26.235 10.3176 26.2935 10.2881 26.3479 10.3058C26.4021 10.3236 26.4317 10.3821 26.4139 10.4365C26.368 10.5762 26.2806 10.6998 26.2035 10.8089C26.1181 10.9298 26.0374 11.0441 26.0591 11.1189C26.0716 11.1616 26.127 11.2294 26.3205 11.309C26.3733 11.3307 26.3985 11.3912 26.3768 11.4441C26.3604 11.4841 26.3218 11.5083 26.281 11.5083Z" fill="#A0573A"/>
<path d="M24.9376 9.91567C25.0901 9.91567 25.2136 9.68293 25.2136 9.39583C25.2136 9.10872 25.0901 8.87598 24.9376 8.87598C24.7852 8.87598 24.6617 9.10872 24.6617 9.39583C24.6617 9.68293 24.7852 9.91567 24.9376 9.91567Z" fill="#2A2D6B"/>
<path d="M27.6933 9.91567C27.8457 9.91567 27.9693 9.68293 27.9693 9.39583C27.9693 9.10872 27.8457 8.87598 27.6933 8.87598C27.5409 8.87598 27.4173 9.10872 27.4173 9.39583C27.4173 9.68293 27.5409 9.91567 27.6933 9.91567Z" fill="#2A2D6B"/>
</g>
<circle cx="41.5" cy="11" r="10.3125" fill="#ACE8C4" stroke="white" stroke-width="0.625"/>
<mask id="mask2_100_720" style="mask-type:alpha" maskUnits="userSpaceOnUse" x="31" y="1" width="21" height="20">
<circle cx="41.5" cy="11" r="10" fill="#A6FFDA"/>
</mask>
<g mask="url(#mask2_100_720)">
<path d="M45.9323 15.2178L45.313 11.865C46.0032 7.38595 43.8083 6.15361 43.4924 6.00085H39.0082C38.6922 6.15361 36.4973 7.38595 37.1874 11.865L36.4443 15.2178C36.4443 15.2178 41.3636 17.8697 45.9323 15.2178Z" fill="#38251F"/>
<path d="M48.1446 21.0001C48.2089 19.2616 47.1141 18.593 47.1141 18.593L42.5013 15.9854H39.8735L35.2611 18.593C35.2611 18.593 34.1662 19.2616 34.2305 21.0001H48.1446Z" fill="#F9C5B8"/>
<path d="M39.5454 16.3223H42.8296C42.1019 15.9293 42.298 14.4188 42.298 14.4188H40.0769C40.0769 14.4188 40.273 15.9293 39.5454 16.3223Z" fill="#F9C5B8"/>
<path d="M40.0315 15.5544C40.8162 15.4649 41.5842 15.2019 42.2745 14.813C42.277 14.5811 42.2981 14.4188 42.2981 14.4188H40.077C40.077 14.4188 40.154 15.014 40.0315 15.5544Z" fill="#F5A997"/>
<path d="M45.0183 11.0542C44.9491 11.5884 44.6469 11.9852 44.343 11.9403C44.0392 11.8954 43.8489 11.4258 43.918 10.8915C43.9871 10.3572 44.2895 9.96042 44.5934 10.0053C44.8971 10.0503 45.0874 10.5198 45.0183 11.0542Z" fill="#F5A997"/>
<path d="M44.3385 11.5436C44.2973 11.5436 44.2599 11.5156 44.2495 11.4738C44.1738 11.1672 44.1394 10.8039 44.4583 10.4339C44.4913 10.3956 44.5494 10.3913 44.5877 10.4243C44.626 10.4574 44.6303 10.5153 44.5973 10.5537C44.3204 10.8749 44.3645 11.1744 44.4276 11.4299C44.4397 11.479 44.4098 11.5288 44.3606 11.5409C44.3531 11.5427 44.3458 11.5436 44.3385 11.5436Z" fill="#E9837B"/>
<path d="M44.6467 11.0108C44.641 11.0108 44.6352 11.0103 44.6294 11.0092C44.4824 10.9813 44.3305 11.0089 44.329 11.0092C44.2791 11.0184 44.2314 10.9858 44.222 10.936C44.2127 10.8863 44.2453 10.8384 44.2949 10.829C44.3024 10.8275 44.4812 10.7943 44.6638 10.829C44.7135 10.8384 44.7461 10.8864 44.7367 10.9362C44.7283 10.9802 44.6898 11.0108 44.6467 11.0108Z" fill="#E9837B"/>
<path d="M37.357 11.0542C37.4261 11.5884 37.7284 11.9852 38.0321 11.9403C38.336 11.8954 38.5262 11.4258 38.4572 10.8915C38.3881 10.3572 38.0857 9.96042 37.7819 10.0053C37.478 10.0503 37.2878 10.5198 37.357 11.0542Z" fill="#F5A997"/>
<path d="M38.0366 11.5436C38.0293 11.5436 38.0219 11.5428 38.0146 11.5409C37.9654 11.5288 37.9353 11.4791 37.9475 11.4299C38.0106 11.1744 38.0547 10.8749 37.7778 10.5537C37.7448 10.5154 37.7491 10.4575 37.7874 10.4244C37.8258 10.3913 37.8838 10.3956 37.9167 10.434C38.2358 10.8039 38.2014 11.1672 38.1256 11.4738C38.1153 11.5156 38.0778 11.5436 38.0366 11.5436Z" fill="#E9837B"/>
<path d="M37.7283 11.0108C37.6852 11.0108 37.6467 10.9802 37.6383 10.9362C37.6289 10.8864 37.6616 10.8384 37.7114 10.829C37.8938 10.7943 38.0727 10.8275 38.0801 10.829C38.1299 10.8384 38.1626 10.8864 38.1531 10.9362C38.1436 10.9859 38.0952 11.0184 38.046 11.0092C38.0434 11.0087 37.8924 10.9814 37.7456 11.0092C37.7398 11.0103 37.7341 11.0108 37.7283 11.0108Z" fill="#E9837B"/>
<path d="M44.2648 9.77389C44.2103 8.24957 43.2748 6.36649 41.3566 6.37687H41.1606H40.9645C39.0463 6.36649 38.1108 8.24957 38.0563 9.77389C38.0016 11.306 38.4712 13.0729 39.4255 14.0127C39.8728 14.4531 40.5514 14.665 41.1606 14.6756C41.7697 14.665 42.4482 14.4531 42.8957 14.0127C43.8498 13.0729 44.3195 11.306 44.2648 9.77389Z" fill="#F9C5B8"/>
<path d="M38.2718 9.55835C38.2729 11.3607 38.1548 11.4131 38.1548 11.4131L38.2718 9.55835Z" fill="#2A2E6D"/>
<path d="M44.1224 11.5259C44.4369 11.296 44.1874 10.1965 44.6222 10.1657C44.6222 10.1657 45.7216 7.43807 43.4923 6.00046C42.3815 5.39648 41.4258 5.39648 41.4258 5.39648C36.5663 5.43619 37.7971 10.109 37.7971 10.109C38.0628 10.4048 37.9786 10.8459 38.1548 11.5311C38.4639 11.0887 38.4713 9.75343 38.4713 9.75343C39.0955 8.8711 39.3763 7.64771 39.3763 7.64771C40.8744 7.79649 43.056 7.70971 43.056 7.70971C43.2953 8.82039 43.3269 9.30233 43.9039 9.75343C43.9039 9.75339 43.9385 10.9052 44.1224 11.5259Z" fill="#38251F"/>
<path d="M43.7377 16.6835L45.9322 17.924C45.652 18.9167 45.6688 19.9626 45.7071 21H36.6692C36.7076 19.9626 36.7243 18.9168 36.4443 17.924L38.6387 16.6835C38.6387 16.6835 41.4011 18.2176 43.7377 16.6835Z" fill="#8886FF"/>
<path d="M43.1775 10.0341C43.0992 9.49122 41.9528 9.47096 41.729 9.68989C41.729 9.68989 41.6427 9.84532 41.7498 9.99055C42.3929 9.75387 42.9866 9.97265 43.1756 10.0747C43.2053 10.0782 43.1775 10.0341 43.1775 10.0341Z" fill="#38251F"/>
<path d="M39.1435 10.0341C39.1435 10.0341 39.1156 10.0782 39.1454 10.0747C39.3345 9.97265 39.9281 9.75391 40.5712 9.99055C40.6783 9.84532 40.592 9.68989 40.592 9.68989C40.3682 9.47096 39.2218 9.49122 39.1435 10.0341Z" fill="#38251F"/>
<path d="M40.5335 11.5947C40.5335 11.7813 40.2005 11.9326 39.7897 11.9326C39.379 11.9326 39.046 11.7813 39.046 11.5947C39.046 11.408 39.3791 11.2567 39.7897 11.2567C40.2005 11.2568 40.5335 11.408 40.5335 11.5947Z" fill="#F6AFA8"/>
<path d="M43.2752 11.5947C43.2752 11.7813 42.9423 11.9326 42.5314 11.9326C42.1207 11.9326 41.7878 11.7813 41.7878 11.5947C41.7878 11.408 42.1207 11.2567 42.5314 11.2567C42.9423 11.2568 43.2752 11.408 43.2752 11.5947Z" fill="#F6AFA8"/>
<path d="M39.9397 11.179C40.0747 11.179 40.1843 10.9728 40.1843 10.7184C40.1843 10.4639 40.0747 10.2577 39.9397 10.2577C39.8046 10.2577 39.6951 10.4639 39.6951 10.7184C39.6951 10.9728 39.8046 11.179 39.9397 11.179Z" fill="#2A2D6B"/>
<path d="M42.3817 11.179C42.5167 11.179 42.6262 10.9728 42.6262 10.7184C42.6262 10.4639 42.5167 10.2577 42.3817 10.2577C42.2466 10.2577 42.1371 10.4639 42.1371 10.7184C42.1371 10.9728 42.2466 11.179 42.3817 11.179Z" fill="#2A2D6B"/>
<path d="M41.2237 12.5726C41.2121 12.5726 41.2003 12.5704 41.1889 12.5657C40.9916 12.4845 40.8842 12.3934 40.8509 12.2788C40.807 12.1275 40.9033 11.9913 41.0053 11.847C41.0691 11.7567 41.1351 11.6633 41.1672 11.5656C41.1829 11.5175 41.235 11.4915 41.283 11.5071C41.331 11.5229 41.3573 11.5747 41.3414 11.6229C41.3008 11.7467 41.2234 11.8563 41.1551 11.9529C41.0793 12.0601 41.0078 12.1613 41.0271 12.2276C41.0381 12.2655 41.0872 12.3255 41.2586 12.396C41.3055 12.4153 41.3278 12.4689 41.3086 12.5158C41.294 12.5512 41.2598 12.5726 41.2237 12.5726Z" fill="#E9837B"/>
<path d="M41.1807 13.2323C40.7465 13.2323 40.4273 13.0172 40.4225 13.014C40.3808 12.9852 40.3703 12.9281 40.3991 12.8863C40.4279 12.8447 40.4849 12.8341 40.5265 12.8629C40.5521 12.8803 41.152 13.2798 41.7968 12.8615C41.8392 12.834 41.8959 12.846 41.9237 12.8885C41.9512 12.9311 41.9391 12.9878 41.8966 13.0154C41.6459 13.178 41.3988 13.2323 41.1807 13.2323Z" fill="#E9837B"/>
<path d="M41.2756 6.78411C42.1825 6.78411 42.9177 6.04891 42.9177 5.14199C42.9177 4.23508 42.1825 3.49988 41.2756 3.49988C40.3687 3.49988 39.6335 4.23508 39.6335 5.14199C39.6335 6.04891 40.3687 6.78411 41.2756 6.78411Z" fill="#38251F"/>
<path d="M44.3818 11.8697C44.4972 11.8697 44.5907 11.7762 44.5907 11.6609C44.5907 11.5455 44.4972 11.452 44.3818 11.452C44.2665 11.452 44.173 11.5455 44.173 11.6609C44.173 11.7762 44.2665 11.8697 44.3818 11.8697Z" fill="white"/>
<path d="M37.9394 11.8697C38.0547 11.8697 38.1482 11.7762 38.1482 11.6609C38.1482 11.5455 38.0547 11.452 37.9394 11.452C37.8241 11.452 37.7306 11.5455 37.7306 11.6609C37.7306 11.7762 37.8241 11.8697 37.9394 11.8697Z" fill="white"/>
</g>
</svg>
